<?xml version="1.0" encoding="UTF-8" standalone="no"?>
<!DOCTYPE svg PUBLIC "-//W3C//DTD SVG 1.1//EN"
 "http://www.w3.org/Graphics/SVG/1.1/DTD/svg11.dtd">
<!-- Generated by graphviz version 2.43.0 (0)
 -->
<!-- Title: snakemake_dag Pages: 1 -->
<svg width="382pt" height="171pt"
 viewBox="0.00 0.00 382.00 171.00" xmlns="http://www.w3.org/2000/svg" xmlns:xlink="http://www.w3.org/1999/xlink">
<g id="graph0" class="graph" transform="scale(1 1) rotate(0) translate(4 167)">
<title>snakemake_dag</title>
<polygon fill="white" stroke="transparent" points="-4,4 -4,-167 378,-167 378,4 -4,4"/>
<g id="clust1" class="cluster">
<title>cluster_0</title>
<path fill="white" stroke="black" stroke-width="2" d="M20,-8C20,-8 354,-8 354,-8 360,-8 366,-14 366,-20 366,-20 366,-143 366,-143 366,-149 360,-155 354,-155 354,-155 20,-155 20,-155 14,-155 8,-149 8,-143 8,-143 8,-20 8,-20 8,-14 14,-8 20,-8"/>
<text text-anchor="middle" x="187" y="-143" font-family="sans" font-size="10.00">Preprocess</text>
</g>
<!-- reads -->
<g id="node1" class="node">
<title>reads</title>
<path fill="none" stroke="#5692d8" stroke-width="2" d="M60,-117C60,-117 30,-117 30,-117 24,-117 18,-111 18,-105 18,-105 18,-93 18,-93 18,-87 24,-81 30,-81 30,-81 60,-81 60,-81 66,-81 72,-87 72,-93 72,-93 72,-105 72,-105 72,-111 66,-117 60,-117"/>
<text text-anchor="middle" x="45" y="-102" font-family="sans" font-size="10.00">FASTQ</text>
<text text-anchor="middle" x="45" y="-91" font-family="sans" font-size="10.00">reads</text>
</g>
<!-- fastp -->
<g id="node3" class="node">
<title>fastp</title>
<path fill="none" stroke="#566bd8" stroke-width="2" d="M152,-117C152,-117 122,-117 122,-117 116,-117 110,-111 110,-105 110,-105 110,-93 110,-93 110,-87 116,-81 122,-81 122,-81 152,-81 152,-81 158,-81 164,-87 164,-93 164,-93 164,-105 164,-105 164,-111 158,-117 152,-117"/>
<text text-anchor="middle" x="137" y="-96.5" font-family="sans" font-size="10.00">fastp</text>
</g>
<!-- reads&#45;&gt;fastp -->
<g id="edge1" class="edge">
<title>reads&#45;&gt;fastp</title>
<path fill="none" stroke="grey" stroke-width="2" d="M72.03,-99C80.63,-99 90.36,-99 99.59,-99"/>
<polygon fill="grey" stroke="grey" stroke-width="2" points="99.72,-102.5 109.71,-99 99.71,-95.5 99.72,-102.5"/>
</g>
<!-- reference -->
<g id="node2" class="node">
<title>reference</title>
<path fill="none" stroke="#d8cb56" stroke-width="2" d="M154,-54C154,-54 120,-54 120,-54 114,-54 108,-48 108,-42 108,-42 108,-30 108,-30 108,-24 114,-18 120,-18 120,-18 154,-18 154,-18 160,-18 166,-24 166,-30 166,-30 166,-42 166,-42 166,-48 160,-54 154,-54"/>
<text text-anchor="middle" x="137" y="-39" font-family="sans" font-size="10.00">Host</text>
<text text-anchor="middle" x="137" y="-28" font-family="sans" font-size="10.00">Genome</text>
</g>
<!-- bowtie2_host -->
<g id="node4" class="node">
<title>bowtie2_host</title>
<path fill="none" stroke="#56d8a2" stroke-width="2" d="M246,-54C246,-54 214,-54 214,-54 208,-54 202,-48 202,-42 202,-42 202,-30 202,-30 202,-24 208,-18 214,-18 214,-18 246,-18 246,-18 252,-18 258,-24 258,-30 258,-30 258,-42 258,-42 258,-48 252,-54 246,-54"/>
<text text-anchor="middle" x="230" y="-39" font-family="sans" font-size="10.00">bowtie2</text>
<text text-anchor="middle" x="230" y="-28" font-family="sans" font-size="10.00">Hosts</text>
</g>
<!-- reference&#45;&gt;bowtie2_host -->
<g id="edge2" class="edge">
<title>reference&#45;&gt;bowtie2_host</title>
<path fill="none" stroke="grey" stroke-width="2" d="M166.29,-36C174.38,-36 183.32,-36 191.85,-36"/>
<polygon fill="grey" stroke="grey" stroke-width="2" points="191.97,-39.5 201.97,-36 191.97,-32.5 191.97,-39.5"/>
</g>
<!-- fastp&#45;&gt;bowtie2_host -->
<g id="edge5" class="edge">
<title>fastp&#45;&gt;bowtie2_host</title>
<path fill="none" stroke="grey" stroke-width="2" d="M164.32,-80.78C173.66,-74.31 184.32,-66.94 194.25,-60.06"/>
<polygon fill="grey" stroke="grey" stroke-width="2" points="196.51,-62.75 202.74,-54.18 192.52,-57 196.51,-62.75"/>
</g>
<!-- kraken2 -->
<g id="node7" class="node">
<title>kraken2</title>
<path fill="none" stroke="#d85e56" stroke-width="2" d="M246,-126C246,-126 214,-126 214,-126 208,-126 202,-120 202,-114 202,-114 202,-102 202,-102 202,-96 208,-90 214,-90 214,-90 246,-90 246,-90 252,-90 258,-96 258,-102 258,-102 258,-114 258,-114 258,-120 252,-126 246,-126"/>
<text text-anchor="middle" x="230" y="-105.5" font-family="sans" font-size="10.00">kraken2</text>
</g>
<!-- fastp&#45;&gt;kraken2 -->
<g id="edge4" class="edge">
<title>fastp&#45;&gt;kraken2</title>
<path fill="none" stroke="grey" stroke-width="2" d="M164.32,-101.6C172.86,-102.45 182.51,-103.4 191.7,-104.31"/>
<polygon fill="grey" stroke="grey" stroke-width="2" points="191.49,-107.81 201.79,-105.31 192.18,-100.84 191.49,-107.81"/>
</g>
<!-- bowtie2_host&#45;&gt;bowtie2_host -->
<g id="edge3" class="edge">
<title>bowtie2_host&#45;&gt;bowtie2_host</title>
<path fill="none" stroke="grey" stroke-width="2" d="M213.36,-54.15C210.8,-63.54 216.34,-72 230,-72 238.32,-72 243.63,-68.86 245.93,-64.28"/>
<polygon fill="grey" stroke="grey" stroke-width="2" points="249.43,-64.37 246.64,-54.15 242.45,-63.88 249.43,-64.37"/>
</g>
<!-- nonpareil -->
<g id="node5" class="node">
<title>nonpareil</title>
<path fill="none" stroke="#d8c356" stroke-width="2" d="M344,-54C344,-54 306,-54 306,-54 300,-54 294,-48 294,-42 294,-42 294,-30 294,-30 294,-24 300,-18 306,-18 306,-18 344,-18 344,-18 350,-18 356,-24 356,-30 356,-30 356,-42 356,-42 356,-48 350,-54 344,-54"/>
<text text-anchor="middle" x="325" y="-33.5" font-family="sans" font-size="10.00">nonpareil</text>
</g>
<!-- bowtie2_host&#45;&gt;nonpareil -->
<g id="edge6" class="edge">
<title>bowtie2_host&#45;&gt;nonpareil</title>
<path fill="none" stroke="grey" stroke-width="2" d="M258.4,-36C266.32,-36 275.14,-36 283.68,-36"/>
<polygon fill="grey" stroke="grey" stroke-width="2" points="283.87,-39.5 293.87,-36 283.87,-32.5 283.87,-39.5"/>
</g>
<!-- singlem -->
<g id="node6" class="node">
<title>singlem</title>
<path fill="none" stroke="#88d856" stroke-width="2" d="M341,-108C341,-108 309,-108 309,-108 303,-108 297,-102 297,-96 297,-96 297,-84 297,-84 297,-78 303,-72 309,-72 309,-72 341,-72 341,-72 347,-72 353,-78 353,-84 353,-84 353,-96 353,-96 353,-102 347,-108 341,-108"/>
<text text-anchor="middle" x="325" y="-87.5" font-family="sans" font-size="10.00">SingleM</text>
</g>
<!-- bowtie2_host&#45;&gt;singlem -->
<g id="edge7" class="edge">
<title>bowtie2_host&#45;&gt;singlem</title>
<path fill="none" stroke="grey" stroke-width="2" d="M258.4,-51.91C267.67,-57.29 278.17,-63.39 288,-69.1"/>
<polygon fill="grey" stroke="grey" stroke-width="2" points="286.39,-72.21 296.8,-74.2 289.91,-66.16 286.39,-72.21"/>
</g>
</g>
</svg>
